<?xml version="1.0" standalone="no"?>
<!DOCTYPE svg PUBLIC "-//W3C//DTD SVG 20010904//EN"
 "http://www.w3.org/TR/2001/REC-SVG-20010904/DTD/svg10.dtd">
<svg version="1.0" xmlns="http://www.w3.org/2000/svg"
 width="1600.000000pt" height="1600.000000pt" viewBox="0 0 1600.000000 1600.000000"
 preserveAspectRatio="xMidYMid meet">
<metadata>
Created by potrace 1.11, written by Peter Selinger 2001-2013
</metadata>
<g transform="translate(0.000000,1600.000000) scale(0.100000,-0.100000)"
fill="#000000" stroke="none">
<path d="M1491 14700 c-95 -34 -162 -105 -195 -205 -15 -47 -16 -538 -14
-6515 l3 -6465 25 -50 c43 -86 111 -142 209 -174 25 -8 1818 -10 6500 -9
l6466 3 49 24 c63 31 126 94 157 157 l24 49 0 6485 0 6485 -25 50 c-44 87
-109 142 -209 174 -24 8 -1829 11 -6485 11 -6359 -1 -6452 -1 -6505 -20z
m12589 -6700 l0 -6080 -6080 0 -6080 0 0 6080 0 6080 6080 0 6080 0 0 -6080z"/>
<path d="M6080 11040 l0 -1120 -1120 0 -1120 0 0 -320 0 -320 1120 0 1120 0 0
-1280 0 -1280 -1120 0 -1120 0 0 -320 0 -320 1120 0 1120 0 0 -1120 0 -1120
320 0 320 0 0 1120 0 1120 1280 0 1280 0 0 -1120 0 -1120 320 0 320 0 0 1120
0 1120 1120 0 1120 0 0 320 0 320 -1120 0 -1120 0 0 1280 0 1280 1120 0 1120
0 0 320 0 320 -1120 0 -1120 0 0 1120 0 1120 -320 0 -320 0 0 -1120 0 -1120
-1280 0 -1280 0 0 1120 0 1120 -320 0 -320 0 0 -1120z m3200 -3040 l0 -1280
-1280 0 -1280 0 0 1280 0 1280 1280 0 1280 0 0 -1280z"/>
</g>
</svg>
